<?xml version="1.0" encoding="UTF-8"?>
<svg width="30px" height="30px" viewBox="0 0 30 30" version="1.1" xmlns="http://www.w3.org/2000/svg" xmlns:xlink="http://www.w3.org/1999/xlink">
    <!-- Generator: Sketch 51.2 (57519) - http://www.bohemiancoding.com/sketch -->
    <title>case</title>
    <desc>Created with Sketch.</desc>
    <defs></defs>
    <g id="Welcome" stroke="none" stroke-width="1" fill="none" fill-rule="evenodd">
        <g id="CodePilot-Desktop" transform="translate(-808.000000, -3371.000000)" fill="#4F67E6">
            <path d="M835.5,3401 L810.5,3401 C809.119288,3401 808,3399.88071 808,3398.5 L808,3378.5 C808,3377.11929 809.119288,3376 810.5,3376 L816.75,3376 L816.75,3373.5 C816.75,3372.11929 817.869288,3371 819.25,3371 L826.75,3371 C828.130712,3371 829.25,3372.11929 829.25,3373.5 L829.25,3376 L835.5,3376 C836.880712,3376 838,3377.11929 838,3378.5 L838,3398.5 C838,3399.88071 836.880712,3401 835.5,3401 L835.5,3401 Z M826.75,3373.5 L819.25,3373.5 L819.25,3376 L826.75,3376 L826.75,3373.5 L826.75,3373.5 Z M835.5,3389.75 L829.25,3389.75 C829.25,3391.13071 828.130712,3392.25 826.75,3392.25 L819.25,3392.25 C817.869288,3392.25 816.75,3391.13071 816.75,3389.75 L810.5,3389.75 L810.5,3387.25 L816.75,3387.25 C816.75,3385.86929 817.869288,3384.75 819.25,3384.75 L826.75,3384.75 C828.130712,3384.75 829.25,3385.86929 829.25,3387.25 L835.5,3387.25 L835.5,3378.5 L810.5,3378.5 L810.5,3398.5 L835.5,3398.5 L835.5,3389.75 L835.5,3389.75 Z M826.75,3388.5 C826.75,3387.80964 826.190356,3387.25 825.5,3387.25 L820.5,3387.25 C819.809644,3387.25 819.25,3387.80964 819.25,3388.5 C819.25,3389.19036 819.809644,3389.75 820.5,3389.75 L825.5,3389.75 C826.190356,3389.75 826.75,3389.19036 826.75,3388.5 L826.75,3388.5 Z" id="case"></path>
        </g>
    </g>
</svg>