<?xml version="1.0" encoding="UTF-8"?>
<svg width="24px" height="24px" viewBox="0 0 24 24" version="1.1" xmlns="http://www.w3.org/2000/svg" xmlns:xlink="http://www.w3.org/1999/xlink">
    <g stroke="none" stroke-width="1" fill="none" fill-rule="evenodd">
        <g transform="translate(-475.000000, -3896.000000)" fill="#FF2F54" id="07.-Icons-🎲">
            <g transform="translate(42.000000, 3635.000000)">
                <g transform="translate(7.000000, 76.950003)">
                    <path d="M441.850307,199.95031 L441.850307,207.570932 C441.850307,209.675309 440.144372,211.381243 438.039995,211.381243 C435.935619,211.381243 434.229684,209.675309 434.229684,207.570932 L434.229684,199.95031 L426.609062,199.95031 C424.504685,199.95031 422.79875,198.244375 422.79875,196.139999 C422.79875,194.035622 424.504685,192.329687 426.609062,192.329687 L434.229684,192.329687 L434.229684,184.709065 C434.229684,182.604688 435.935619,180.898754 438.039995,180.898754 C440.144372,180.898754 441.850307,182.604688 441.850307,184.709065 L441.850307,192.329687 L449.470929,192.329687 C451.575306,192.329687 453.28124,194.035622 453.28124,196.139999 C453.28124,198.244375 451.575306,199.95031 449.470929,199.95031 L441.850307,199.95031 Z" id="magnify-path-copy" transform="translate(438.039995, 196.139999) rotate(-315.000000) translate(-438.039995, -196.139999) "></path>
                </g>
            </g>
        </g>
    </g>
</svg>
