<?xml version="1.0" encoding="UTF-8"?>
<svg width="31px" height="28px" viewBox="0 0 31 28" version="1.1" xmlns="http://www.w3.org/2000/svg" xmlns:xlink="http://www.w3.org/1999/xlink">
    <!-- Generator: Sketch 51.2 (57519) - http://www.bohemiancoding.com/sketch -->
    <title>folder</title>
    <desc>Created with Sketch.</desc>
    <defs></defs>
    <g id="Welcome" stroke="none" stroke-width="1" fill="none" fill-rule="evenodd">
        <g id="CodePilot-Desktop" transform="translate(-806.000000, -4354.000000)" fill="#FFED4A">
            <g id="Group-9" transform="translate(78.000000, 4290.000000)">
                <g id="folder" transform="translate(728.000000, 64.000000)">
                    <path d="M27.7200006,27.7200006 L2.52000006,27.7200006 C1.12824246,27.7200006 0,26.5917582 0,25.2000006 L0,25.2000006 L0,23.9400005 L0,23.9400005 L0,2.52000006 C0,1.12824246 1.12824246,0 2.52000006,0 L12.6000003,0 C13.9917579,0 15.1200003,1.12824246 15.1200003,2.52000006 L27.7200006,2.52000006 C29.1117582,2.52000006 30.2400007,3.64824251 30.2400007,5.04000011 L30.2400007,25.2000006 C30.2400007,26.5917582 29.1117582,27.7200006 27.7200006,27.7200006 L27.7200006,27.7200006 Z M27.7200006,5.04000011 L12.6000003,5.04000011 L12.6000003,2.52000006 L2.52000006,2.52000006 L2.52000006,7.56000017 L27.7200006,7.56000017 L27.7200006,5.04000011 L27.7200006,5.04000011 Z M27.7200006,10.0800002 L2.52000006,10.0800002 L2.52000006,23.9400005 L2.52000006,23.9400005 L2.52000006,25.2000006 L27.7200006,25.2000006 L27.7200006,23.9400005 L27.7200006,23.9400005 L27.7200006,10.0800002 L27.7200006,10.0800002 Z"></path>
                </g>
            </g>
        </g>
    </g>
</svg>