<?xml version="1.0" encoding="UTF-8"?>
<svg width="31px" height="31px" viewBox="0 0 31 31" version="1.1" xmlns="http://www.w3.org/2000/svg" xmlns:xlink="http://www.w3.org/1999/xlink">
    <!-- Generator: Sketch 51.2 (57519) - http://www.bohemiancoding.com/sketch -->
    <title>speedo1</title>
    <desc>Created with Sketch.</desc>
    <defs></defs>
    <g id="Osiris-UI-Kit" stroke="none" stroke-width="1" fill="none" fill-rule="evenodd">
        <g transform="translate(-49.000000, -3773.000000)" fill="#FF2F54" id="07.-Icons-🎲">
            <g transform="translate(42.000000, 3635.000000)">
                <g id="Icon-Samples" transform="translate(7.000000, 76.950003)">
                    <g id="speedo1" transform="translate(0.599985, 61.339996)">
                        <path d="M15.1200003,30.2400007 C6.76945474,30.2400007 0,23.470546 0,15.1200003 C0,6.76945474 6.76945474,0 15.1200003,0 C23.470546,0 30.2400007,6.76945474 30.2400007,15.1200003 C30.2400007,23.470546 23.470546,30.2400007 15.1200003,30.2400007 L15.1200003,30.2400007 Z M15.1200003,2.52000006 C8.16121234,2.52000006 2.52000006,8.16121234 2.52000006,15.1200003 C2.52000006,22.0787883 8.16121234,27.7200006 15.1200003,27.7200006 C22.0787883,27.7200006 27.7200006,22.0787883 27.7200006,15.1200003 C27.7200006,11.7782725 26.3925044,8.57341312 24.029546,6.2104547 C21.6665876,3.84749628 18.4617282,2.52000006 15.1200003,2.52000006 L15.1200003,2.52000006 Z M25.2000006,15.1288203 L25.2000006,15.1200003 L22.6800005,15.1200003 C22.6800005,10.9447275 19.2952731,7.56000017 15.1200003,7.56000017 C10.9447275,7.56000017 7.56000017,10.9447275 7.56000017,15.1200003 L5.04000011,15.1200003 C5.04000011,9.55296994 9.55296994,5.04000011 15.1200003,5.04000011 C20.6870307,5.04000011 25.2000006,9.55296994 25.2000006,15.1200003 L25.2000006,15.1288203 L25.2000006,15.1288203 Z M13.9217403,16.5929404 C13.900163,16.5205559 13.8853988,16.4463129 13.8776403,16.3711804 L13.8776403,11.3500803 C13.8776403,10.6639438 14.4338638,10.1077202 15.1200003,10.1077202 C15.8061368,10.1077202 16.3623604,10.6639438 16.3623604,11.3500803 L16.3623604,16.3711804 C16.3547246,16.4459184 16.3399574,16.5197546 16.3182604,16.5916804 C18.0763243,17.1782651 19.1498028,18.9529602 18.8531477,20.7824045 C18.5564926,22.6118488 16.9772127,23.9563836 15.1238726,23.957358 C13.2705325,23.9583324 11.6898396,22.615459 11.391261,20.7863277 C11.0926824,18.9571964 12.1642941,17.1813734 13.9217403,16.5929404 L13.9217403,16.5929404 Z M15.1200003,21.4200005 C15.8158791,21.4200005 16.3800004,20.8558793 16.3800004,20.1600005 C16.3800004,19.4641217 15.8158791,18.9000004 15.1200003,18.9000004 C14.4241215,18.9000004 13.8600003,19.4641217 13.8600003,20.1600005 C13.8600003,20.8558793 14.4241215,21.4200005 15.1200003,21.4200005 L15.1200003,21.4200005 Z"></path>
                    </g>
                </g>
            </g>
        </g>
    </g>
</svg>