<?xml version="1.0" encoding="UTF-8"?>
<svg width="30px" height="30px" viewBox="0 0 30 30" version="1.1" xmlns="http://www.w3.org/2000/svg" xmlns:xlink="http://www.w3.org/1999/xlink">
    <!-- Generator: Sketch 51.2 (57519) - http://www.bohemiancoding.com/sketch -->
    <title>sun</title>
    <desc>Created with Sketch.</desc>
    <defs></defs>
    <g id="Welcome" stroke="none" stroke-width="1" fill="none" fill-rule="evenodd">
        <g id="CodePilot-Desktop" transform="translate(-452.000000, -3808.000000)" fill="#FF2F54">
            <path d="M480.75,3824.25 L478.25,3824.25 C477.559644,3824.25 477,3823.69036 477,3823 C477,3822.30964 477.559644,3821.75 478.25,3821.75 L480.75,3821.75 C481.440356,3821.75 482,3822.30964 482,3823 C482,3823.69036 481.440356,3824.25 480.75,3824.25 L480.75,3824.25 Z M475.1175,3815.19 C474.687408,3815.62009 473.990092,3815.62009 473.56,3815.19 C473.129908,3814.75991 473.129908,3814.06259 473.56,3813.6325 L475.1175,3812.07625 C475.395497,3811.79825 475.800687,3811.68968 476.180439,3811.79144 C476.56019,3811.89319 476.85681,3812.18981 476.958564,3812.56956 C477.060318,3812.94931 476.951747,3813.3545 476.67375,3813.6325 L475.1175,3815.19 Z M467,3829.25 C463.54822,3829.25 460.75,3826.45178 460.75,3823 C460.75,3819.54822 463.54822,3816.75 467,3816.75 C470.45178,3816.75 473.25,3819.54822 473.25,3823 C473.25,3824.6576 472.59152,3826.24732 471.419417,3827.41942 C470.247315,3828.59152 468.657603,3829.25 467,3829.25 L467,3829.25 Z M467,3819.25 C464.928932,3819.25 463.25,3820.92893 463.25,3823 C463.25,3825.07107 464.928932,3826.75 467,3826.75 C469.071068,3826.75 470.75,3825.07107 470.75,3823 C470.75,3820.92893 469.071068,3819.25 467,3819.25 L467,3819.25 Z M467,3813 C466.309644,3813 465.75,3812.44036 465.75,3811.75 L465.75,3809.25 C465.75,3808.55964 466.309644,3808 467,3808 C467.690356,3808 468.25,3808.55964 468.25,3809.25 L468.25,3811.75 C468.25,3812.44036 467.690356,3813 467,3813 L467,3813 Z M457.6325,3833.92375 C457.354503,3834.20175 456.949313,3834.31032 456.569561,3834.20856 C456.18981,3834.10681 455.89319,3833.81019 455.791436,3833.43044 C455.689682,3833.05069 455.798253,3832.6455 456.07625,3832.3675 L457.6325,3830.81 C457.910721,3830.53178 458.316236,3830.42312 458.696292,3830.52496 C459.076349,3830.62679 459.373206,3830.92365 459.475042,3831.30371 C459.576878,3831.68376 459.468221,3832.08928 459.19,3832.3675 L457.6325,3833.92375 Z M457.6325,3815.19 L456.07625,3813.6325 C455.646503,3813.20275 455.646503,3812.506 456.07625,3812.07625 C456.505997,3811.6465 457.202753,3811.6465 457.6325,3812.07625 L459.19,3813.6325 C459.468221,3813.91072 459.576878,3814.31624 459.475042,3814.69629 C459.373206,3815.07635 459.076349,3815.37321 458.696292,3815.47504 C458.316236,3815.57688 457.910721,3815.46822 457.6325,3815.19 L457.6325,3815.19 Z M457,3823 C457,3823.69036 456.440356,3824.25 455.75,3824.25 L453.25,3824.25 C452.559644,3824.25 452,3823.69036 452,3823 C452,3822.30964 452.559644,3821.75 453.25,3821.75 L455.75,3821.75 C456.440356,3821.75 457,3822.30964 457,3823 L457,3823 Z M467,3833 C467.690356,3833 468.25,3833.55964 468.25,3834.25 L468.25,3836.75 C468.25,3837.44036 467.690356,3838 467,3838 C466.309644,3838 465.75,3837.44036 465.75,3836.75 L465.75,3834.25 C465.75,3833.55964 466.309644,3833 467,3833 L467,3833 Z M476.3675,3830.81 L477.92375,3832.3675 C478.201747,3832.6455 478.310318,3833.05069 478.208564,3833.43044 C478.10681,3833.81019 477.81019,3834.10681 477.430439,3834.20856 C477.050687,3834.31032 476.645497,3834.20175 476.3675,3833.92375 L474.81,3832.3675 C474.379908,3831.93741 474.379908,3831.24009 474.81,3830.81 C475.240092,3830.37991 475.937408,3830.37991 476.3675,3830.81 L476.3675,3830.81 Z" id="sun"></path>
        </g>
    </g>
</svg>