<?xml version="1.0" encoding="UTF-8"?>
<svg width="43px" height="39px" viewBox="0 0 43 39" version="1.1" xmlns="http://www.w3.org/2000/svg" xmlns:xlink="http://www.w3.org/1999/xlink">
    <!-- Generator: Sketch 51.2 (57519) - http://www.bohemiancoding.com/sketch -->
    <title>_2-toggles</title>
    <desc>Created with Sketch.</desc>
    <defs></defs>
    <g id="Welcome" stroke="none" stroke-width="1" fill="none" fill-rule="evenodd">
        <g id="CodePilot-Desktop" transform="translate(-985.000000, -2218.000000)" fill="#FCFF36">
            <path d="M993.958333,2235.72727 C989.010782,2235.72727 985,2231.75889 985,2226.86364 C985,2221.96839 989.010782,2218 993.958333,2218 L1019.04167,2218 C1022.24217,2218 1025.19956,2219.6894 1026.79981,2222.43182 C1028.40006,2225.17424 1028.40006,2228.55304 1026.79981,2231.29545 C1025.19956,2234.03787 1022.24217,2235.72727 1019.04167,2235.72727 L993.958333,2235.72727 Z M1019.04167,2221.54545 L993.958333,2221.54545 C990.989803,2221.54545 988.583333,2223.92649 988.583333,2226.86364 C988.583333,2229.80079 990.989803,2232.18182 993.958333,2232.18182 L1019.04167,2232.18182 C1022.0102,2232.18182 1024.41667,2229.80079 1024.41667,2226.86364 C1024.41667,2223.92649 1022.0102,2221.54545 1019.04167,2221.54545 L1019.04167,2221.54545 Z M1019.04167,2228.63636 L1017.25,2228.63636 C1016.26049,2228.63636 1015.45833,2227.84269 1015.45833,2226.86364 C1015.45833,2225.88459 1016.26049,2225.09091 1017.25,2225.09091 L1019.04167,2225.09091 C1020.03118,2225.09091 1020.83333,2225.88459 1020.83333,2226.86364 C1020.83333,2227.84269 1020.03118,2228.63636 1019.04167,2228.63636 L1019.04167,2228.63636 Z M993.958333,2239.27273 L1019.04167,2239.27273 C1023.98922,2239.27273 1028,2243.24111 1028,2248.13636 C1028,2253.03161 1023.98922,2257 1019.04167,2257 L993.958333,2257 C989.010782,2257 985,2253.03161 985,2248.13636 C985,2243.24111 989.010782,2239.27273 993.958333,2239.27273 L993.958333,2239.27273 Z M993.958333,2253.45455 L1019.04167,2253.45455 C1022.0102,2253.45455 1024.41667,2251.07351 1024.41667,2248.13636 C1024.41667,2245.19921 1022.0102,2242.81818 1019.04167,2242.81818 L993.958333,2242.81818 C990.989803,2242.81818 988.583333,2245.19921 988.583333,2248.13636 C988.583333,2251.07351 990.989803,2253.45455 993.958333,2253.45455 L993.958333,2253.45455 Z M993.958333,2246.36364 L995.75,2246.36364 C996.73951,2246.36364 997.541667,2247.15731 997.541667,2248.13636 C997.541667,2249.11541 996.73951,2249.90909 995.75,2249.90909 L993.958333,2249.90909 C992.968823,2249.90909 992.166667,2249.11541 992.166667,2248.13636 C992.166667,2247.15731 992.968823,2246.36364 993.958333,2246.36364 L993.958333,2246.36364 Z" id="_2-toggles"></path>
        </g>
    </g>
</svg>